<?xml version="1.0" standalone="no"?>
<!DOCTYPE svg PUBLIC "-//W3C//DTD SVG 20010904//EN"
 "http://www.w3.org/TR/2001/REC-SVG-20010904/DTD/svg10.dtd">
<svg version="1.0" xmlns="http://www.w3.org/2000/svg"
 width="1024.000000pt" height="1024.000000pt" viewBox="0 0 1024.000000 1024.000000"
 preserveAspectRatio="xMidYMid meet">
<metadata>
Created by potrace 1.11, written by Peter Selinger 2001-2013
</metadata>
<g transform="translate(0.000000,1024.000000) scale(0.100000,-0.100000)"
fill="#000000" stroke="none">
<path d="M5345 10209 c-76 -48 -145 -132 -204 -248 -62 -121 -86 -159 -94
-151 -3 3 5 35 18 73 13 37 20 69 15 72 -15 10 -80 -52 -107 -102 -25 -47 -26
-56 -17 -101 8 -38 7 -62 -3 -94 -16 -56 -34 -89 -45 -82 -4 3 -6 8 -4 12 10
16 17 132 8 132 -18 0 -61 -40 -76 -71 -27 -55 -29 -90 -6 -142 17 -38 20 -59
15 -96 -6 -47 -20 -80 -28 -71 -3 3 -7 35 -9 73 -3 37 -7 70 -11 73 -10 11
-47 -16 -62 -46 -28 -54 -25 -99 11 -160 32 -53 39 -80 35 -143 -2 -43 -23
-28 -37 26 -7 26 -10 47 -8 47 3 0 0 9 -6 20 -19 35 -47 25 -65 -25 -23 -58
-13 -106 31 -154 48 -54 82 -159 55 -175 -8 -5 -20 19 -55 107 -29 73 -85 21
-72 -66 6 -39 16 -56 57 -97 52 -52 88 -117 89 -158 0 -36 -19 -22 -52 38 -53
97 -82 109 -97 39 -11 -52 14 -102 81 -160 58 -50 83 -86 99 -141 14 -49 -13
-31 -61 40 -25 37 -53 68 -64 70 -38 8 -47 -46 -19 -106 20 -43 33 -57 88 -97
22 -16 50 -40 63 -54 32 -37 62 -104 51 -115 -5 -5 -10 -8 -12 -5 -2 2 -25 32
-51 66 -70 93 -110 106 -108 34 1 -50 41 -109 101 -148 67 -44 124 -103 141
-143 23 -56 0 -45 -75 35 -63 68 -76 77 -89 66 -21 -18 -20 -59 2 -96 23 -37
80 -95 93 -95 31 0 140 -105 160 -152 22 -53 -1 -42 -75 36 -79 83 -108 94
-114 44 -6 -53 52 -125 141 -176 77 -44 157 -126 157 -161 0 -22 -19 -9 -85
58 -92 95 -149 103 -120 17 13 -36 89 -126 108 -126 16 0 116 -69 147 -102 39
-40 63 -85 51 -92 -5 -3 -37 21 -71 54 -96 93 -134 112 -142 73 -10 -41 53
-135 108 -163 43 -21 135 -80 150 -95 19 -19 64 -87 64 -96 0 -19 -21 -7 -68
39 -108 106 -132 119 -152 82 -11 -21 10 -73 47 -115 17 -19 85 -64 144 -93
60 -31 137 -124 126 -155 -2 -6 -40 24 -86 66 -55 52 -90 77 -106 77 -54 0
-34 -83 34 -141 20 -17 72 -52 116 -78 83 -49 140 -113 133 -149 -3 -14 -12
-9 -46 24 -89 88 -123 114 -146 114 -32 0 -41 -29 -23 -72 20 -47 68 -92 140
-130 74 -39 152 -113 159 -151 8 -42 -12 -33 -77 34 -33 33 -73 67 -89 76 -28
15 -31 14 -47 -6 -34 -42 13 -122 102 -172 126 -71 188 -137 176 -187 -3 -13
-17 -3 -61 43 -94 98 -137 117 -158 70 -9 -20 -8 -33 7 -65 20 -44 62 -81 140
-125 28 -15 59 -37 71 -49 25 -25 54 -79 54 -101 0 -31 -28 -13 -88 54 -66 74
-90 87 -121 64 -25 -17 -26 -41 -6 -90 18 -42 40 -63 110 -103 70 -41 102 -74
116 -120 19 -62 -1 -71 -42 -20 -100 124 -112 131 -154 98 -20 -15 -24 -26
-20 -54 6 -48 30 -86 73 -114 21 -13 54 -34 74 -48 41 -27 71 -80 66 -119 -5
-46 -25 -37 -68 30 -49 78 -86 100 -122 73 -27 -20 -36 -56 -24 -95 13 -43 26
-57 91 -101 73 -50 98 -90 88 -144 -8 -42 -37 -32 -62 22 -47 99 -85 119 -134
71 -26 -27 -29 -35 -24 -77 4 -35 12 -52 34 -69 122 -99 133 -119 107 -183
-19 -44 -43 -36 -59 20 -30 107 -81 129 -140 59 -17 -21 -25 -42 -25 -68 0
-41 14 -61 72 -105 46 -34 59 -70 44 -115 -11 -33 -39 -61 -50 -50 -3 3 -10
30 -16 59 -6 30 -18 62 -27 72 -29 33 -99 4 -129 -54 -28 -54 -21 -86 30 -134
25 -23 46 -48 47 -56 0 -7 2 -20 4 -29 4 -20 -47 -94 -65 -94 -11 0 -16 16
-18 60 -4 68 -14 85 -51 85 -54 0 -143 -90 -135 -137 1 -7 2 -19 3 -26 0 -7
21 -37 46 -66 53 -61 61 -87 45 -135 -11 -33 -36 -64 -45 -54 -2 2 -7 26 -10
54 -3 27 -8 56 -11 66 -18 61 -124 -10 -137 -93 -4 -26 11 -69 25 -69 4 0 21
-19 38 -42 34 -46 36 -88 5 -134 -22 -34 -33 -22 -46 54 -10 53 -15 63 -35 68
-47 12 -103 -46 -110 -113 -3 -32 2 -42 41 -79 24 -24 49 -52 54 -63 16 -30
13 -76 -7 -101 -16 -20 -19 -21 -31 -6 -7 9 -11 16 -9 16 12 0 -30 105 -45
114 -38 24 -109 -47 -109 -109 0 -32 8 -44 60 -94 63 -60 76 -90 59 -144 -11
-33 -34 -35 -46 -4 -48 122 -59 134 -108 110 -29 -14 -51 -47 -57 -89 -5 -31
21 -71 70 -105 25 -17 54 -45 65 -62 22 -37 25 -90 5 -106 -16 -14 -24 -6 -60
66 -38 77 -76 92 -121 48 -27 -28 -33 -76 -14 -117 5 -13 38 -41 71 -63 75
-49 98 -78 101 -130 3 -64 -24 -58 -68 14 -45 72 -74 95 -107 82 -34 -13 -51
-38 -51 -74 0 -48 26 -81 103 -126 65 -39 119 -89 121 -114 1 -7 3 -22 4 -34
4 -43 -29 -25 -87 46 -65 79 -94 91 -133 55 -20 -19 -24 -30 -20 -55 9 -52 39
-83 125 -129 45 -24 95 -59 111 -78 l31 -35 59 18 58 18 42 125 c22 69 43 131
46 138 3 9 -2 11 -18 7 -21 -6 -22 -4 -16 31 8 49 29 80 76 114 28 20 50 53
89 129 49 98 50 103 29 103 -14 0 -46 -26 -95 -77 -74 -78 -96 -85 -85 -29 8
41 77 105 156 145 121 62 172 191 76 191 -23 0 -44 -15 -98 -70 -71 -72 -109
-90 -95 -47 8 28 43 77 69 99 11 9 53 34 94 55 108 56 165 129 141 181 -17 39
-61 23 -137 -50 -91 -89 -119 -100 -94 -40 25 59 100 114 235 172 43 19 94 48
113 66 34 32 34 33 19 63 -12 21 -26 32 -50 36 -40 8 -81 -16 -166 -94 -70
-65 -89 -66 -56 -3 35 66 111 116 248 162 105 36 153 67 162 106 10 40 -17 64
-72 64 -58 0 -94 -18 -167 -85 -79 -72 -112 -76 -61 -7 54 74 160 137 246 146
96 11 138 26 170 63 36 40 36 43 9 76 -18 23 -26 26 -62 22 -68 -9 -161 -45
-187 -74 -15 -17 -69 -49 -74 -44 -9 9 15 46 53 81 50 45 108 70 209 91 48 10
107 28 131 40 50 26 120 94 117 113 -7 43 -19 58 -42 58 -32 0 -49 -9 -154
-80 -127 -85 -154 -88 -83 -9 43 47 93 78 204 125 96 41 150 81 173 128 19 40
13 64 -19 72 -29 7 -44 -1 -145 -81 -46 -36 -86 -65 -90 -65 -27 0 -6 45 46
97 20 20 152 93 168 93 4 0 27 13 50 30 74 50 98 142 42 156 -33 8 -57 -7
-139 -83 -77 -73 -104 -75 -68 -5 23 45 74 88 145 122 60 28 115 75 127 109
14 36 2 76 -28 90 -33 15 -53 2 -123 -78 -71 -81 -101 -80 -66 3 14 33 67 83
114 107 55 27 83 52 101 87 24 47 24 47 6 82 -32 63 -80 48 -142 -44 -55 -81
-79 -90 -70 -26 7 53 28 85 79 118 75 49 118 97 118 130 0 49 -16 79 -48 90
-37 13 -60 -6 -97 -79 -36 -70 -69 -80 -67 -20 1 48 28 86 91 132 77 57 96
117 54 173 -39 53 -80 38 -117 -43 -15 -33 -32 -63 -37 -67 -19 -11 -32 14
-31 57 2 45 25 79 84 124 36 27 56 63 53 95 -1 8 -3 22 -3 31 -3 25 -52 69
-78 69 -26 0 -43 -27 -64 -97 -13 -42 -34 -61 -46 -42 -3 5 -7 28 -9 51 -4 48
11 74 73 131 34 32 42 46 42 74 0 58 -39 111 -88 119 -18 3 -39 -33 -51 -85
-18 -83 -50 -79 -59 8 -4 49 -3 51 48 105 50 53 52 58 47 98 -7 49 -34 89 -71
102 -35 13 -44 2 -63 -78 -8 -36 -19 -66 -24 -66 -14 0 -37 58 -34 84 1 11 3
28 4 37 0 8 19 33 41 56 30 30 41 49 42 74 2 60 -48 129 -94 129 -23 0 -35
-24 -41 -85 -3 -27 -6 -51 -6 -52 -1 -2 -7 -3 -14 -3 -19 0 -37 44 -37 88 0
29 9 48 39 85 34 40 39 54 37 86 -4 56 -56 121 -95 121 -16 0 -30 -34 -36 -86
-2 -26 -8 -51 -13 -56 -22 -22 -51 65 -39 114 4 13 16 34 27 46 12 13 28 35
35 49 27 52 -31 163 -85 163 -21 0 -30 -21 -36 -87 -5 -66 -20 -75 -40 -27
-28 65 -18 108 38 168 21 24 23 64 4 110 -13 31 -59 76 -77 76 -15 0 -30 -39
-34 -92 -6 -61 -12 -70 -31 -44 -37 51 -28 103 31 184 14 19 22 42 20 55 -12
63 -18 78 -42 101 -45 46 -66 30 -77 -59 -10 -68 -22 -77 -41 -31 -24 57 -10
117 37 158 42 36 31 139 -19 178 -24 19 -27 19 -44 4 -10 -9 -18 -19 -17 -23
4 -17 -15 -111 -23 -111 -14 0 -29 37 -29 75 0 41 18 81 49 109 56 51 25 206
-38 189 -15 -4 -23 -21 -35 -70 -20 -89 -31 -96 -46 -30 -10 44 9 100 48 141
47 49 59 124 28 171 -28 42 -52 32 -75 -30 -12 -31 -21 -62 -21 -70 0 -28 -28
-15 -32 15 -6 40 14 96 49 134 16 17 37 43 46 58 37 59 8 178 -35 146 -10 -7
-28 -40 -41 -73 -23 -60 -39 -73 -45 -36 -7 41 18 99 59 137 63 60 94 143 73
198 -14 37 -60 -3 -98 -86 -20 -44 -36 -49 -36 -12 0 43 28 89 86 144 73 67
107 147 83 191 -11 21 -11 21 -38 -5 -14 -14 -40 -48 -56 -76 -43 -72 -63 -61
-30 17 14 34 34 56 130 142 58 53 105 171 67 171 -12 0 -57 -45 -106 -104 -42
-52 -53 -55 -34 -10 23 51 61 94 129 145 68 50 103 89 133 146 41 81 0 70 -90
-23 -41 -42 -74 -69 -74 -61 0 31 80 115 162 170 109 72 207 181 185 203 -6 7
-79 -46 -147 -105 -19 -17 -39 -31 -44 -31 -11 0 13 30 79 95 55 55 95 104 95
117 0 20 -70 -29 -127 -90 -35 -36 -65 -63 -67 -61 -6 6 25 42 108 129 56 58
86 98 86 114 0 12 -36 4 -65 -15z"/>
<path d="M4600 7250 c0 -18 27 -53 110 -139 44 -46 80 -90 80 -97 0 -8 -15 2
-32 23 -68 78 -121 123 -145 123 -25 0 -12 -22 50 -84 72 -72 107 -114 107
-129 0 -6 -17 5 -37 25 -21 19 -63 54 -93 78 -44 34 -56 39 -58 26 -7 -34 74
-122 183 -197 94 -65 97 -67 133 -118 53 -73 36 -69 -47 12 -81 79 -101 91
-101 59 0 -45 73 -130 182 -212 51 -39 101 -110 96 -137 -3 -13 -14 -3 -45 38
-87 118 -145 126 -94 14 18 -40 44 -70 133 -153 45 -42 85 -117 76 -143 -2 -6
-26 21 -54 62 -62 91 -90 100 -87 28 1 -56 19 -87 94 -160 59 -57 89 -119 75
-156 -6 -14 -15 -4 -42 47 -19 35 -40 70 -47 78 -20 19 -47 4 -48 -27 -3 -76
11 -111 71 -167 42 -40 74 -107 68 -144 -3 -24 -28 -41 -28 -20 0 7 -12 39
-26 71 -32 70 -57 78 -79 26 -21 -50 -4 -110 46 -164 46 -50 59 -79 59 -134 0
-60 -24 -49 -45 21 -20 68 -35 85 -64 75 -18 -6 -33 -42 -36 -90 -2 -26 22
-85 39 -99 26 -20 56 -80 56 -111 0 -43 -11 -76 -23 -72 -9 3 -37 93 -31 100
1 1 -5 13 -15 26 l-18 23 -25 -24 c-53 -48 -55 -132 -4 -183 46 -46 60 -114
32 -164 -16 -29 -21 -22 -35 54 -6 32 -15 63 -20 68 -31 31 -91 -41 -91 -108
0 -32 8 -52 34 -86 43 -55 52 -123 22 -165 -19 -26 -23 -19 -35 55 -15 90 -45
102 -90 35 -36 -53 -34 -110 8 -161 40 -49 47 -118 17 -159 -18 -24 -28 -14
-32 28 -7 91 -23 117 -59 94 -62 -40 -83 -133 -42 -182 51 -61 58 -98 32 -161
-18 -43 -37 -34 -41 19 -8 99 -20 114 -70 82 -30 -20 -50 -56 -58 -104 -4 -28
0 -42 23 -70 46 -57 53 -79 46 -125 -6 -42 -29 -75 -42 -62 -3 4 -8 26 -10 49
-7 90 -20 107 -63 85 -36 -18 -62 -60 -67 -109 -5 -39 -2 -48 24 -74 56 -56
65 -95 38 -161 -12 -28 -18 -34 -27 -25 -7 7 -13 20 -14 29 -13 93 -16 102
-34 108 -41 13 -94 -42 -104 -107 -5 -32 -1 -43 27 -75 17 -21 36 -41 40 -44
25 -18 23 -129 -2 -137 -22 -7 -25 -1 -38 59 -17 83 -40 98 -88 57 -34 -30
-56 -94 -43 -128 5 -13 24 -38 41 -55 45 -43 55 -65 52 -113 -4 -48 -11 -62
-30 -62 -14 0 -20 14 -29 60 -9 54 -25 80 -48 80 -47 -1 -88 -54 -88 -115 0
-30 8 -44 55 -89 30 -29 56 -62 56 -72 5 -73 -7 -114 -29 -100 -6 3 -20 35
-32 71 -24 73 -44 86 -90 58 -33 -19 -56 -78 -45 -116 4 -12 34 -47 66 -77 63
-58 79 -97 65 -154 -10 -39 -30 -22 -60 48 -35 82 -63 98 -106 58 -56 -51 -44
-129 28 -177 76 -50 91 -70 98 -128 10 -75 -16 -72 -61 8 -52 91 -79 106 -123
65 -47 -44 -23 -135 45 -170 85 -44 133 -108 133 -176 0 -29 -32 -12 -63 33
-71 102 -102 120 -141 78 -42 -46 -22 -115 48 -162 41 -28 92 -34 166 -20 14
3 61 11 105 18 60 9 84 17 95 33 23 33 62 67 100 86 81 42 119 107 96 165 -24
59 -74 44 -138 -43 -45 -61 -58 -73 -70 -66 -13 8 -9 41 8 78 12 24 42 50 104
90 99 64 136 114 125 166 -7 32 -30 50 -55 43 -8 -2 -47 -39 -87 -81 -60 -64
-73 -74 -79 -58 -14 37 31 103 98 146 117 73 135 87 155 129 36 72 4 123 -55
86 -15 -10 -52 -45 -84 -79 -39 -43 -59 -58 -67 -51 -17 17 27 93 73 127 23
16 61 40 86 53 62 32 118 91 126 131 8 46 0 64 -32 64 -19 0 -47 -20 -104 -76
-79 -77 -101 -83 -76 -23 19 46 67 89 148 133 109 60 166 132 147 184 -14 38
-45 25 -128 -53 -44 -41 -85 -75 -91 -75 -17 0 17 70 47 98 31 29 128 92 141
92 4 0 28 17 52 37 72 62 98 153 44 153 -16 0 -50 -25 -104 -76 -44 -43 -83
-74 -86 -71 -27 27 61 124 160 177 86 45 145 104 153 154 12 77 -32 66 -136
-33 -63 -60 -81 -71 -81 -50 0 33 84 120 143 146 20 9 37 20 37 25 0 4 7 8 15
8 21 0 108 91 121 128 9 24 9 35 0 48 -19 25 -43 12 -125 -66 -97 -91 -115
-95 -61 -10 36 56 80 90 195 151 31 17 95 105 95 131 0 66 -44 52 -134 -41
-68 -71 -101 -83 -65 -23 37 59 60 81 124 120 86 51 106 68 138 114 29 43 34
77 16 95 -18 18 -40 5 -110 -68 -69 -72 -79 -79 -79 -54 0 39 62 107 145 160
95 62 144 128 131 181 -11 42 -41 28 -113 -52 -47 -52 -69 -71 -71 -60 -7 34
48 106 119 155 79 56 104 83 123 138 15 42 4 79 -22 78 -15 0 -74 -63 -99
-106 -16 -26 -41 -44 -50 -36 -7 8 35 92 59 117 12 14 46 42 74 63 58 44 81
77 90 133 4 30 2 43 -10 53 -24 20 -41 8 -92 -68 -45 -67 -67 -83 -59 -41 9
46 42 94 96 141 62 54 89 99 89 147 0 43 -9 62 -31 62 -17 0 -69 -63 -69 -85
0 -5 -11 -23 -25 -40 -28 -35 -32 -22 -14 50 8 31 28 62 70 106 32 35 60 72
61 83 5 58 4 73 -9 99 -26 51 -44 33 -93 -90 -20 -52 -34 -40 -27 22 5 46 13
65 53 115 38 49 47 68 49 105 2 53 -26 108 -53 103 -12 -2 -22 -23 -33 -68
-14 -58 -37 -92 -40 -58 -6 74 -4 85 29 147 38 72 42 113 15 165 -32 63 -72
68 -69 10 1 -20 -2 -38 -6 -40 -4 -3 -5 -11 -2 -19 3 -7 1 -22 -4 -32 -10 -16
-12 -15 -21 10 -16 42 -13 96 8 152 10 28 17 60 15 73 -9 55 -66 132 -97 132
-5 0 -6 -32 -2 -75 4 -41 4 -75 1 -75 -7 0 -36 56 -42 81 -2 10 -6 28 -8 39
-3 10 0 35 5 55 6 20 7 49 4 65 -8 39 -69 116 -105 135 -28 14 -29 14 -25 -6
2 -11 13 -45 24 -75 12 -30 16 -54 11 -54 -13 0 -48 57 -100 162 -23 47 -64
111 -91 141 -70 79 -169 141 -169 107z"/>
<path d="M6885 4368 c-34 -12 -84 -45 -103 -68 -6 -8 -28 -44 -47 -80 -19 -36
-49 -80 -66 -98 -37 -39 -103 -74 -132 -70 -19 3 -10 16 65 95 92 97 100 118
56 142 -34 19 -90 3 -150 -42 -35 -27 -48 -47 -78 -122 -27 -71 -46 -101 -87
-142 -48 -49 -93 -69 -93 -42 0 11 47 74 92 123 40 44 47 99 13 112 -60 23
-161 -54 -190 -146 -47 -148 -59 -172 -101 -216 -39 -40 -74 -57 -74 -36 0 5
22 45 48 88 58 96 68 127 46 148 -19 20 -39 17 -85 -12 -67 -41 -96 -103 -114
-241 -6 -47 -39 -113 -76 -151 -31 -32 -34 -33 -37 -14 -1 11 13 55 32 97 55
118 55 146 0 147 -47 0 -119 -88 -129 -157 -3 -21 -7 -69 -10 -107 -5 -71 -36
-156 -70 -189 -33 -34 -34 3 -1 102 35 104 36 127 4 137 -29 9 -68 -23 -101
-85 -27 -48 -29 -62 -31 -169 -1 -64 -5 -127 -8 -139 -9 -30 -36 -81 -47 -88
-19 -11 -19 13 1 108 17 78 19 103 9 123 l-11 26 -32 -19 c-41 -24 -78 -95
-80 -153 0 -25 3 -88 7 -140 6 -81 4 -102 -11 -144 -11 -27 -25 -51 -33 -54
-11 -4 -12 9 -6 69 13 134 13 146 5 158 -15 25 -54 7 -78 -36 -33 -60 -38
-127 -17 -215 10 -40 18 -97 18 -125 0 -29 4 -53 8 -53 29 0 167 45 184 60 24
21 54 31 107 35 53 5 106 41 128 88 43 93 -11 107 -128 33 -46 -29 -62 -20
-35 21 39 61 68 76 159 79 41 1 84 9 102 18 61 32 92 107 55 137 -9 8 -18 13
-19 11 -2 -1 -21 -9 -41 -16 -21 -8 -55 -21 -75 -30 -50 -21 -57 -5 -16 39 36
40 92 58 136 46 58 -16 127 -7 164 21 60 46 61 118 2 118 -14 0 -51 -7 -84
-17 -33 -9 -63 -13 -67 -9 -11 10 10 39 43 58 47 27 87 29 156 8 66 -20 101
-19 148 5 48 25 69 69 46 100 -14 19 -34 21 -161 12 -41 -3 -39 21 4 47 48 27
108 25 175 -8 63 -31 95 -34 149 -17 65 22 89 86 43 111 -14 7 -57 14 -96 15
-85 2 -103 14 -63 41 19 12 46 19 83 19 47 0 65 -6 120 -40 52 -31 76 -40 118
-42 46 -1 58 2 84 26 26 23 30 32 24 55 -8 33 -46 51 -128 61 -97 12 -96 49 1
59 46 4 116 -25 162 -68 56 -52 133 -71 192 -47 35 14 52 54 34 82 -12 19 -90
54 -143 63 -62 12 -64 49 -2 54 76 6 107 -7 182 -77 77 -73 131 -100 186 -94
43 5 81 43 73 73 -6 24 -61 62 -125 86 -57 22 -73 37 -56 52 18 15 78 21 107
10 77 -28 158 -20 167 17 15 61 -32 95 -138 98 -42 1 -73 7 -75 13 -6 18 66
31 163 28 113 -3 165 17 190 70 34 69 -14 118 -120 122 -75 2 -134 -19 -264
-97 -125 -75 -187 -98 -206 -79 -8 8 -6 16 10 28 80 64 99 78 113 86 26 15 61
60 61 78 0 40 -70 59 -135 36z"/>
<path d="M5078 2843 c-9 -10 -21 -34 -27 -54 -12 -37 -18 -126 -8 -135 2 -3
25 0 50 6 l45 12 0 79 c1 58 -3 83 -14 94 -20 19 -27 19 -46 -2z"/>
<path d="M6918 2835 c-2 -1 -38 -5 -80 -9 -94 -8 -152 -15 -198 -23 -19 -3
-38 -6 -41 -5 -6 1 -120 -18 -259 -43 -19 -3 -89 -17 -155 -31 -66 -14 -131
-28 -144 -30 -46 -9 -526 -134 -751 -195 -124 -33 -232 -62 -240 -64 -8 -2
-60 -15 -115 -30 -112 -29 -123 -32 -180 -45 -22 -5 -69 -16 -105 -24 -126
-30 -344 -73 -464 -92 -21 -3 -47 -7 -57 -9 -10 -2 -49 -7 -86 -10 -37 -4 -76
-9 -87 -11 -10 -2 -51 -6 -90 -10 -39 -3 -73 -8 -76 -9 -17 -10 -288 -19 -560
-19 -285 1 -495 7 -627 19 -133 13 -209 21 -273 31 -19 3 -49 7 -67 9 -215 27
-523 114 -675 192 -16 7 -28 11 -28 9 0 -17 250 -152 434 -235 109 -50 463
-170 546 -185 14 -3 34 -7 45 -10 53 -15 210 -47 295 -62 150 -25 182 -29 283
-39 28 -3 63 -7 77 -10 97 -19 657 -27 840 -11 152 12 250 23 300 31 14 2 43
6 65 10 23 3 50 7 60 9 11 2 40 7 65 11 25 4 54 9 65 11 11 2 34 7 50 10 63
11 174 35 275 59 58 14 125 30 150 36 76 18 424 117 635 181 225 67 261 78
284 83 9 2 57 16 106 30 50 14 97 28 105 30 8 2 42 12 75 21 33 9 67 17 75 19
8 2 78 19 155 38 77 19 154 37 170 40 17 3 64 12 105 20 134 27 299 53 395 63
33 3 71 7 85 10 130 22 684 22 845 -1 17 -2 55 -7 85 -10 54 -6 111 -13 160
-21 124 -20 161 -26 200 -35 25 -5 54 -12 65 -15 13 -4 17 -3 10 4 -5 5 -41
19 -80 31 -38 12 -79 26 -90 30 -57 25 -457 133 -595 160 -30 6 -66 14 -80 17
-33 6 -127 23 -165 29 -16 2 -48 7 -70 10 -51 8 -84 12 -165 21 -36 3 -78 8
-95 10 -36 5 -402 13 -407 9z"/>
<path d="M292 2703 c29 -27 64 -59 78 -73 132 -131 506 -425 735 -577 249
-167 525 -319 770 -427 61 -27 129 -57 152 -67 23 -11 46 -19 50 -19 4 0 20
-6 35 -14 73 -38 526 -170 693 -202 22 -4 46 -8 53 -10 25 -5 179 -29 242 -38
36 -6 134 -15 230 -21 72 -6 462 -6 520 -1 25 3 88 7 140 11 52 4 109 8 125
10 17 2 59 6 95 9 36 4 92 11 125 16 33 5 80 12 105 15 25 3 56 8 70 10 14 3
39 7 55 9 72 12 108 19 250 47 83 17 157 32 165 34 8 2 58 13 110 25 52 12
102 23 110 25 30 8 335 87 350 90 13 3 272 75 565 157 164 46 211 59 425 116
199 54 298 79 550 138 36 9 76 18 90 20 21 4 73 15 190 39 36 7 288 48 315 50
17 2 48 6 70 9 22 3 60 8 85 11 25 3 61 7 80 10 148 19 509 24 728 12 95 -6
327 -32 362 -42 8 -2 35 -6 60 -9 81 -11 289 -56 400 -87 41 -11 100 -28 130
-36 30 -8 60 -18 65 -23 6 -4 24 -10 40 -14 17 -4 44 -13 60 -21 17 -7 37 -15
45 -18 8 -3 41 -17 72 -31 32 -14 58 -24 58 -22 0 11 -331 183 -481 250 -71
31 -273 108 -294 112 -12 2 -42 11 -66 20 -24 9 -53 18 -64 19 -11 2 -63 16
-115 30 -52 15 -104 29 -114 31 -11 2 -65 13 -120 25 -56 12 -110 23 -121 24
-11 2 -60 10 -110 19 -49 8 -112 18 -140 21 -27 3 -66 7 -85 10 -285 35 -741
39 -995 10 -16 -2 -59 -6 -95 -10 -36 -3 -72 -8 -80 -10 -8 -3 -40 -7 -70 -10
-30 -3 -66 -7 -80 -10 -14 -3 -45 -8 -70 -11 -25 -3 -52 -7 -60 -9 -8 -2 -29
-7 -47 -10 -36 -6 -270 -54 -293 -59 -8 -3 -58 -14 -110 -26 -114 -26 -91 -20
-275 -69 -82 -21 -274 -74 -425 -116 -151 -42 -318 -88 -370 -102 -212 -57
-356 -94 -380 -99 -14 -3 -33 -7 -42 -10 -25 -7 -56 -14 -131 -30 -38 -8 -72
-16 -76 -18 -3 -2 -27 -7 -51 -11 -25 -4 -76 -13 -115 -21 -38 -8 -86 -17
-105 -19 -19 -3 -45 -7 -57 -9 -11 -3 -43 -7 -70 -11 -26 -4 -59 -9 -73 -11
-26 -4 -74 -10 -145 -18 -45 -6 -195 -17 -270 -21 -155 -9 -473 -4 -615 10
-30 3 -77 8 -105 10 -27 3 -61 7 -75 9 -14 2 -52 7 -85 10 -33 4 -67 9 -76 12
-9 3 -32 7 -50 9 -27 3 -131 24 -309 60 -51 11 -262 67 -298 79 -23 8 -46 16
-50 16 -15 1 -89 23 -171 50 -74 24 -137 47 -351 125 -328 121 -840 384 -1167
600 -79 52 -146 95 -148 95 -2 0 19 -21 47 -47z"/>
<path d="M4591 2646 c-21 -25 -21 -56 0 -90 22 -37 15 -37 132 -5 l38 10 -33
33 c-66 65 -112 82 -137 52z"/>
<path d="M4398 2522 c-13 -9 -26 -21 -30 -26 -10 -14 -10 -28 0 -22 4 2 27 7
52 11 55 8 64 13 50 30 -17 21 -47 24 -72 7z"/>
<path d="M2352 768 c-7 -7 -12 -16 -12 -21 0 -14 -269 -638 -286 -665 -9 -13
-32 -30 -51 -39 -20 -8 -32 -18 -26 -21 17 -11 218 -7 221 3 2 10 -1 11 -32
14 -24 2 -46 31 -42 54 2 12 18 57 36 100 l33 77 142 -1 143 -1 30 -71 c43
-103 45 -141 10 -153 -13 -5 -27 -8 -32 -9 -5 0 -11 -4 -13 -10 -3 -11 282
-14 292 -3 4 3 -10 11 -29 18 -61 20 -57 11 -319 643 -22 53 -43 97 -47 97 -3
0 -11 -5 -18 -12z m47 -312 c33 -79 61 -146 61 -149 0 -2 -56 -5 -124 -5 -139
-1 -131 -7 -97 73 10 22 35 82 57 132 21 51 40 93 40 93 1 0 29 -65 63 -144z"/>
<path d="M5015 768 c-36 -13 -82 -53 -101 -90 -20 -38 -17 -109 6 -175 11 -31
19 -57 17 -58 -1 -1 -29 -20 -63 -43 -87 -58 -138 -120 -151 -184 -9 -51 -9
-66 3 -102 24 -66 78 -103 167 -113 66 -7 132 12 199 58 l58 39 60 -44 c90
-66 167 -73 236 -21 32 25 77 102 68 117 -9 15 -21 9 -32 -17 -32 -71 -143
-62 -220 18 l-33 34 41 64 c23 35 61 98 85 139 39 70 53 83 110 107 13 5 -21
9 -94 11 -101 2 -146 -3 -116 -15 43 -16 55 -77 28 -142 -18 -42 -71 -121 -81
-121 -4 1 -16 15 -27 33 -79 124 -117 188 -114 191 2 1 24 14 49 28 98 56 137
115 125 185 -7 42 -18 59 -57 89 -30 23 -114 30 -163 12z m115 -33 c58 -30 56
-122 -4 -180 -27 -26 -85 -55 -91 -46 -12 20 -41 116 -40 131 1 8 3 23 3 33 2
25 59 77 84 77 10 0 32 -7 48 -15z m-140 -382 c12 -26 47 -85 77 -130 63 -94
63 -89 -19 -133 -132 -70 -262 56 -203 197 16 38 89 113 111 113 6 0 22 -21
34 -47z"/>
<path d="M7010 728 c-12 -29 -28 -66 -35 -83 -18 -41 -85 -194 -98 -225 -6
-14 -11 -27 -11 -30 -1 -3 -30 -71 -65 -152 -66 -154 -95 -198 -131 -198 -13
0 -20 -5 -18 -12 3 -9 35 -13 104 -13 105 -1 124 1 124 17 0 5 -3 7 -8 4 -4
-2 -22 2 -41 10 -31 13 -33 17 -28 52 3 20 19 67 35 104 l30 66 141 1 141 1
26 -57 c41 -93 51 -140 34 -158 -9 -8 -26 -16 -40 -19 -36 -7 -37 -7 -17 -14
10 -4 76 -7 147 -7 125 1 165 10 108 26 -52 14 -57 23 -183 324 -157 374 -172
409 -182 412 -6 2 -20 -20 -33 -49z m58 -258 c22 -52 47 -112 56 -132 l16 -36
-125 0 c-69 1 -125 5 -125 9 0 10 15 46 51 127 16 35 29 65 29 68 0 2 10 25
22 51 18 38 23 43 29 27 4 -10 25 -62 47 -114z"/>
<path d="M1187 758 c-7 -4 -10 -8 -7 -9 102 -18 122 -36 251 -228 89 -134 89
-134 72 -160 -25 -38 -161 -211 -197 -249 -33 -36 -119 -85 -130 -75 -3 4 -6
0 -6 -8 0 -12 23 -14 128 -13 70 1 131 2 136 3 15 2 1 11 -24 16 -35 7 -52 26
-45 52 3 13 45 75 94 138 65 84 91 111 99 102 42 -53 144 -215 148 -236 6 -29
-11 -51 -43 -55 -10 -2 -17 -7 -16 -12 3 -10 313 -12 313 -2 0 3 -16 12 -35
18 -50 17 -79 49 -200 229 l-108 160 34 43 c19 24 37 45 41 46 5 2 8 10 8 17
0 7 3 15 8 17 4 2 23 23 41 48 57 75 126 136 160 143 63 13 21 22 -96 21 -65
-1 -124 -2 -132 -3 -21 -2 -7 -11 25 -17 71 -13 65 -41 -36 -173 l-78 -102
-47 68 c-26 37 -59 89 -74 115 -31 55 -24 77 28 91 18 4 30 11 27 15 -9 9
-325 9 -339 0z"/>
<path d="M2763 756 c-7 -10 18 -27 29 -20 12 7 64 -23 93 -54 l26 -27 -3 -293
-3 -293 -25 -19 c-13 -10 -27 -18 -30 -18 -25 2 -52 -3 -46 -9 12 -12 256 -9
256 3 0 6 -10 10 -22 9 -60 -5 -79 33 -78 152 1 46 1 89 1 96 -1 6 -1 46 -1
87 0 128 -1 174 -4 179 -2 3 0 15 4 26 6 19 8 18 20 -5 7 -14 19 -29 26 -35 7
-5 72 -82 144 -170 73 -88 142 -171 154 -185 11 -14 50 -60 84 -103 35 -42 68
-75 73 -72 5 4 9 150 9 349 0 399 -2 391 93 395 10 1 16 4 13 9 -2 4 -60 7
-128 6 -148 -2 -146 -2 -129 -13 7 -5 21 -7 30 -4 9 2 28 -5 43 -16 l26 -21 1
-257 2 -257 -43 55 c-23 30 -45 56 -48 59 -3 3 -57 68 -120 145 -62 77 -137
168 -166 202 -29 34 -59 72 -68 84 -14 20 -24 22 -111 23 -54 1 -99 -3 -102
-8z"/>
<path d="M3603 758 c-2 -5 2 -8 9 -9 40 -2 65 -11 81 -30 16 -20 17 -49 17
-328 -1 -342 -2 -347 -69 -356 -38 -4 -53 -14 -25 -16 83 -5 304 -2 304 4 0 4
-3 7 -7 8 -37 3 -61 13 -77 29 -18 17 -20 35 -20 167 l-1 148 170 1 170 1 5
-31 c3 -17 3 -48 -1 -68 -3 -21 -4 -38 0 -38 3 0 5 -26 4 -57 -5 -119 -17
-144 -73 -147 -16 0 -30 -5 -30 -11 0 -11 305 -14 316 -2 4 4 1 7 -7 8 -38 2
-66 11 -83 29 -18 18 -19 37 -20 330 0 299 1 312 21 331 18 19 37 26 71 28 6
1 12 4 12 9 0 5 -242 8 -309 3 -25 -2 -3 -14 31 -16 48 -4 65 -32 67 -112 2
-69 3 -188 2 -211 -1 -10 -39 -12 -173 -10 l-173 3 1 130 c0 72 3 142 7 156 7
28 45 50 76 44 12 -2 21 0 21 6 0 11 4 11 -168 13 -79 0 -146 -2 -149 -6z"/>
<path d="M5858 759 c-11 -7 15 -19 40 -19 30 0 90 -48 132 -105 22 -30 40 -58
40 -63 0 -4 8 -17 18 -28 27 -30 102 -149 102 -162 0 -7 -9 -22 -19 -34 -29
-35 -103 -128 -133 -169 -48 -64 -109 -118 -154 -135 -24 -9 -42 -19 -40 -23
7 -11 251 -6 254 4 1 6 -1 10 -5 10 -5 1 -18 4 -30 9 -36 12 -34 43 5 95 35
46 142 184 152 194 4 4 27 -23 51 -60 24 -37 46 -70 49 -73 3 -3 20 -28 37
-55 48 -75 36 -107 -42 -114 -5 -1 -5 -5 2 -9 17 -11 297 -8 303 3 3 5 -9 12
-25 17 -43 11 -68 40 -193 225 l-109 161 34 44 c18 23 43 56 56 73 109 144
180 211 213 198 8 -3 14 1 14 8 0 11 -26 14 -125 14 -68 -1 -127 -4 -131 -8
-4 -4 -1 -8 7 -9 8 0 19 -2 25 -2 20 -2 44 -28 44 -46 0 -15 -116 -176 -156
-217 -9 -9 -26 10 -77 86 -60 90 -71 115 -68 148 1 11 32 26 55 28 5 0 11 5
13 10 3 11 -321 15 -339 4z"/>
<path d="M7451 762 c-6 -2 -11 -10 -11 -18 0 -9 5 -12 10 -9 19 12 79 -16 108
-49 l28 -32 -1 -287 c-1 -280 -1 -287 -22 -309 -19 -18 -32 -23 -77 -27 -5 -1
-6 -4 -2 -8 8 -9 256 -11 256 -3 0 3 -20 11 -44 18 -31 8 -47 18 -52 34 -10
30 -12 518 -2 518 5 0 8 -4 8 -10 0 -5 10 -19 23 -32 12 -13 40 -46 62 -73 21
-28 42 -52 45 -55 3 -3 46 -54 95 -115 49 -60 92 -112 95 -115 3 -3 25 -30 50
-60 25 -30 49 -60 55 -66 5 -6 20 -23 33 -38 12 -15 26 -25 30 -22 4 2 7 152
7 333 -1 180 3 343 7 360 8 28 16 35 56 47 26 8 45 15 42 16 -12 4 -236 6
-247 2 -7 -2 -10 -8 -7 -13 3 -5 10 -7 15 -3 17 10 68 -17 76 -40 9 -27 11
-497 2 -494 -6 3 -77 86 -159 189 -19 24 -69 84 -110 134 -41 50 -99 121 -129
158 -30 37 -57 67 -60 68 -19 3 -172 4 -180 1z"/>
<path d="M8273 758 c-5 -9 3 -11 33 -9 12 1 34 -9 50 -22 l29 -25 0 -311 c0
-310 0 -311 -23 -333 -12 -13 -31 -24 -42 -24 -35 -2 -40 -4 -40 -11 0 -5 70
-8 155 -8 96 0 155 4 154 10 -1 6 -6 9 -12 7 -21 -6 -69 22 -78 45 -5 13 -9
86 -9 162 l0 138 173 -1 172 -1 0 -131 c1 -175 -4 -191 -60 -206 -25 -7 -45
-15 -45 -18 0 -3 66 -4 147 -4 182 2 176 2 168 14 -4 6 -10 8 -15 5 -13 -8
-70 16 -79 34 -5 9 -8 156 -7 328 1 361 -4 342 101 352 6 1 5 5 -2 9 -14 9
-300 8 -309 -1 -4 -4 -3 -7 2 -8 61 -5 91 -22 96 -56 2 -16 4 -84 3 -153 l0
-125 -173 -3 -173 -2 2 145 c1 167 8 185 71 188 21 1 38 5 38 10 0 9 10 8
-168 10 -85 1 -156 -1 -159 -5z"/>
</g>
</svg>
